<svg width="34" height="35" viewBox="0 0 34 35" fill="none" xmlns="http://www.w3.org/2000/svg">
<g clip-path="url(#clip0_211_2046)">
<path fill-rule="evenodd" clip-rule="evenodd" d="M9.97907 3.67999C13.8233 3.67999 16.9398 6.7964 16.9398 10.6407V3.67999H23.9005C27.7447 3.67999 30.8612 6.7964 30.8612 10.6407C30.8612 14.4849 27.7447 17.6014 23.9005 17.6014C27.7447 17.6014 30.8612 20.7178 30.8612 24.5621C30.8612 26.4709 30.0928 28.2003 28.8485 29.4578L28.8224 29.4841L28.7993 29.507C27.5415 30.7531 25.8109 31.5228 23.9005 31.5228C22.003 31.5228 20.2829 30.7636 19.0273 29.5324C19.011 29.5164 18.9947 29.5002 18.9785 29.4841C18.9632 29.4688 18.9481 29.4535 18.933 29.4381C17.7001 28.1823 16.9398 26.461 16.9398 24.5621C16.9398 28.4063 13.8233 31.5228 9.97907 31.5228C6.13478 31.5228 3.01837 28.4063 3.01837 24.5621V17.6014H9.97907C6.13478 17.6014 3.01837 14.4849 3.01837 10.6407C3.01837 6.7964 6.13478 3.67999 9.97907 3.67999ZM15.5476 10.6407C15.5476 13.7161 13.0545 16.2092 9.97907 16.2092V5.07213C13.0545 5.07213 15.5476 7.56526 15.5476 10.6407ZM29.469 24.5621C29.469 21.4866 26.9759 18.9935 23.9005 18.9935C20.825 18.9935 18.3319 21.4866 18.3319 24.5621H29.469ZM4.41051 18.9935V24.5621C4.41051 27.6375 6.90364 30.1306 9.97907 30.1306C13.0545 30.1306 15.5476 27.6375 15.5476 24.5621V18.9935H4.41051ZM18.3319 16.2092V5.07213H23.9005C26.9759 5.07213 29.469 7.56526 29.469 10.6407C29.469 13.7161 26.9759 16.2092 23.9005 16.2092H18.3319Z" fill="#263238"/>
</g>
<defs>
<clipPath id="clip0_211_2046">
<rect width="27.8428" height="27.8428" fill="white" transform="translate(3.01837 3.67999)"/>
</clipPath>
</defs>
</svg>
